<?xml version="1.0" encoding="iso-8859-1"?>
<!-- Generator: Adobe Illustrator 19.0.0, SVG Export Plug-In . SVG Version: 6.00 Build 0)  -->
<svg version="1.1" id="Layer_1" xmlns="http://www.w3.org/2000/svg" xmlns:xlink="http://www.w3.org/1999/xlink" x="0px" y="0px"
	 viewBox="0 0 512.001 512.001" style="enable-background:new 0 0 512.001 512.001;" xml:space="preserve">
<g>
	<g>
		<path d="M467.488,223.117c-12.288-27.468-32.266-51.015-57.424-67.655V89.019h-15.209c-11.488,0-22.496,2.774-32.294,7.744
			c-7.671,45.247-47.14,79.813-94.537,79.813c-34.183,0-64.241-17.983-81.224-44.981C118.035,143.5,64.322,199.877,56.453,269.926
			c-15.198-5.753-26.036-20.453-26.036-37.641v-32.83H0v32.83c0,33.951,24.073,62.378,56.045,69.127
			c2.738,31.378,14.823,61.512,34.72,86.05c19.836,24.464,46.68,42.539,76.534,51.748v57.581h87.653v-50.594h26.788v50.594h87.653
			v-57.598c21.333-6.571,41.214-17.676,58.066-32.509c17.092-15.045,30.796-33.675,40.048-54.339h44.492V223.117H467.488z
			 M330.996,223.032H205.695v-30.417h125.301V223.032z M393.807,258.712c-11.082,0-20.099-9.017-20.099-20.099
			c0-11.082,9.017-20.099,20.099-20.099c11.083,0,20.099,9.017,20.099,20.099C413.905,249.695,404.889,258.712,393.807,258.712z"/>
	</g>
</g>
<g>
	<g>
		<path d="M268.025,15.211c-36.103,0-65.475,29.372-65.475,65.474c0,36.103,29.372,65.475,65.475,65.475
			s65.475-29.372,65.475-65.475C333.501,44.582,304.129,15.211,268.025,15.211z"/>
	</g>
</g>
<g>
</g>
<g>
</g>
<g>
</g>
<g>
</g>
<g>
</g>
<g>
</g>
<g>
</g>
<g>
</g>
<g>
</g>
<g>
</g>
<g>
</g>
<g>
</g>
<g>
</g>
<g>
</g>
<g>
</g>
</svg>
