<?xml version="1.0" encoding="utf-8"?>
<!-- Generator: Adobe Illustrator 19.1.0, SVG Export Plug-In . SVG Version: 6.00 Build 0)  -->
<svg version="1.1" id="Layer_1" xmlns="http://www.w3.org/2000/svg" xmlns:xlink="http://www.w3.org/1999/xlink" x="0px" y="0px"
	 viewBox="0 0 100 100" style="enable-background:new 0 0 100 100;" xml:space="preserve">
<style type="text/css">
	.st0{fill-rule:evenodd;clip-rule:evenodd;fill:#231F20;}
	.st1{fill-rule:evenodd;clip-rule:evenodd;fill:#FFFFFF;}
	.st2{opacity:0.52;fill-rule:evenodd;clip-rule:evenodd;fill:#231F20;}
	.st3{fill-rule:evenodd;clip-rule:evenodd;fill:#CEB13C;}
	.st4{fill-rule:evenodd;clip-rule:evenodd;fill:none;stroke:#FFFFFF;stroke-width:0.216;stroke-miterlimit:10;}
	.st5{fill-rule:evenodd;clip-rule:evenodd;fill:#CEB13C;stroke:#231F20;stroke-width:0.2951;stroke-miterlimit:10;}
	.st6{fill-rule:evenodd;clip-rule:evenodd;fill:#EC1C24;stroke:#231F20;stroke-width:0.2951;stroke-miterlimit:10;}
	
		.st7{fill-rule:evenodd;clip-rule:evenodd;fill:#CEB13C;stroke:#231F20;stroke-width:0.2951;stroke-linejoin:round;stroke-miterlimit:10;}
	.st8{fill-rule:evenodd;clip-rule:evenodd;fill:#16367D;stroke:#231F20;stroke-width:0.2951;stroke-miterlimit:10;}
	.st9{fill-rule:evenodd;clip-rule:evenodd;fill:#FFFFFF;stroke:#231F20;stroke-width:0.2951;stroke-miterlimit:10;}
	.st10{fill-rule:evenodd;clip-rule:evenodd;fill:none;stroke:#231F20;stroke-width:0.2951;stroke-miterlimit:10;}
</style>
<g>
	<path class="st0" d="M87.8,51.6c0-11.7-59.4-22.4-70.8-23.5l-1.8,1v45h52.3V74C78.9,72.9,87.8,63.3,87.8,51.6z"/>
	<path class="st1" d="M17.3,72.9V28.4h51.8l0.2,0.1c11.4,1.1,20.1,10.6,20.1,22.1c0,11.5-8.6,21-20.1,22.1l-0.2,0v0.1H17.3z"/>
	<path class="st2" d="M69.3,28.1H17v45h52.3V73c11.4-1.1,20.3-10.7,20.3-22.4c0-11.7-8.9-21.3-20.3-22.4V28.1L69.3,28.1z M68.8,28.7
		L68.8,28.7l0.5,0.1c11.3,1.1,19.8,10.5,19.8,21.9s-8.5,20.8-19.8,21.9l-0.5,0v0.1H17.6V28.7H68.8z"/>
	<polygon class="st0" points="72,56 36.4,80.6 34.6,81.1 30.4,74.1 31.6,73.4 17,51.7 15.2,52.1 9.8,44.2 15.8,40.2 16.8,39.7 	"/>
	
		<rect x="20.3" y="27.2" transform="matrix(-0.8308 0.5566 -0.5566 -0.8308 105.3779 66.7413)" class="st3" width="44.5" height="44.5"/>
	<path class="st0" d="M48.7,18.2L11.3,43.2l25.1,37.4l37.4-25.1L48.7,18.2L48.7,18.2z M48.6,18.9L73,55.4L36.5,79.9L12.1,43.4
		L48.6,18.9z"/>
	<line class="st4" x1="15.2" y1="52.1" x2="17.2" y2="51.4"/>
	<path class="st1" d="M36.1,55.9c0,2.1,0.6,2.8,2.7,2.6c10-1.1,11.3-8,11.3-12.1c0-4-1.7-12.2-11.7-12.6c-1.8-0.1-2.6,0.1-2.6,1.4
		L36.1,55.9L36.1,55.9z M38.9,31.6c10.9,0,17.6,4.8,17.6,14.3c0,4.8-1.8,14.5-17.4,14.7H24.4v-2c0.3-0.5,0.6-1.4,0.7-1.4
		c2.4-0.1,3.4,1.2,3.4-0.9l-0.3-20c0-2.1-0.9-2.3-3.9-2.6v-2.2l0.7-1.4L38.9,31.6z"/>
	<path class="st5" d="M36.1,55.9c0,2.1,0.6,2.8,2.7,2.6c10-1.1,11.3-8,11.3-12.1c0-4-1.7-12.2-11.7-12.6c-1.8-0.1-2.6,0.1-2.6,1.4
		L36.1,55.9L36.1,55.9z M38.9,31.6c10.9,0,17.6,4.8,17.6,14.3c0,4.8-1.8,14.5-17.4,14.7H24.4v-2c0.3-0.5,0.6-1.4,0.7-1.4
		c2.4-0.1,3.4,1.2,3.4-0.9l-0.3-20c0-2.1-0.9-2.3-3.9-2.6v-2.2l0.7-1.4L38.9,31.6z"/>
	<path class="st1" d="M36.8,54.6c0,2.1,0.6,2.8,2.7,2.6c10-1.1,11.3-8,11.3-12.1c0-4-1.7-12.2-11.7-12.6c-1.8-0.1-2.6,0.1-2.6,1.4
		L36.8,54.6L36.8,54.6z M39.6,30.2c10.9,0,17.6,4.8,17.6,14.3c0,4.8-1.8,14.5-17.4,14.7H25.1v-2c2.7-0.1,4.2-0.1,4.2-2.3l-0.3-20
		c0-2.1-0.9-2.3-3.9-2.6v-2.2H39.6z"/>
	<path class="st6" d="M36.8,54.6c0,2.1,0.6,2.8,2.7,2.6c10-1.1,11.3-8,11.3-12.1c0-4-1.7-12.2-11.7-12.6c-1.8-0.1-2.6,0.1-2.6,1.4
		L36.8,54.6L36.8,54.6z M39.6,30.2c10.9,0,17.6,4.8,17.6,14.3c0,4.8-1.8,14.5-17.4,14.7H25.1v-2c2.7-0.1,4.2-0.1,4.2-2.3l-0.3-20
		c0-2.1-0.9-2.3-3.9-2.6v-2.2H39.6z"/>
	<path class="st1" d="M60.1,69v-2.4c0.2,0,0.8-0.9,0.9-1c2.9-0.3,3.2,0.5,3.2-2V46.1l-8.6,22l-0.9,1h-1.8l-4.1-10.4l0.7-1.4l-1.6-4
		l-0.9,0.9l-2.6-6.6l0,13.9c0,3.3,1.7,5,4.3,5.1l0.9,1.4l-0.9,1H37.5v-2.5c0.3,0,0.7-0.9,0.9-1c2.9-0.5,3.8-1.6,3.8-4.8l0.9-1.9
		v-2.6l-0.9,0.3V44.7c0-2.4-1.5-2.7-4.7-3v-2.2l0.9-1l9.5,1L55.6,59l8.3-19.4l0.9-1l9.4,1l0.9,1.1l-0.9,1c-3.2,0.2-4.1-0.1-4.1,3.2
		v18.7c0,3.2,0.6,2.7,4.1,3l0.9,1.5l-0.9,1H60.1z"/>
	<path class="st7" d="M60.1,69v-2.4c0.2,0,0.8-0.9,0.9-1c2.9-0.3,3.2,0.5,3.2-2V46.1l-8.6,22l-0.9,1h-1.8l-4.1-10.4l0.7-1.4l-1.6-4
		l-0.9,0.9l-2.6-6.6l0,13.9c0,3.3,1.7,5,4.3,5.1l0.9,1.4l-0.9,1H37.5v-2.5c0.3,0,0.7-0.9,0.9-1c2.9-0.5,3.8-1.6,3.8-4.8l0.9-1.9
		v-2.6l-0.9,0.3V44.7c0-2.4-1.5-2.7-4.7-3v-2.2l0.9-1l9.5,1L55.6,59l8.3-19.4l0.9-1l9.4,1l0.9,1.1l-0.9,1c-3.2,0.2-4.1-0.1-4.1,3.2
		v18.7c0,3.2,0.6,2.7,4.1,3l0.9,1.5l-0.9,1H60.1z"/>
	<path class="st0" d="M43.7,31.5v0.4c5.3,2,8.4,6.3,8.4,12.8c0,3.7-1,10.3-8.4,13.1v0.4c8.5-2.5,9.7-9.7,9.7-13.6
		C53.3,37.6,49.8,33.2,43.7,31.5z"/>
	<path class="st1" d="M61,68.1v-2.4c3.3-0.3,4.1-0.4,4.1-2.9V45.2l-9.5,22.9h-1.8l-8.4-21.4l0,13.9c0,3.3,1.7,5,4.3,5.1v2.4H38.5
		v-2.5c3.4-0.3,4.7-2.3,4.7-5.7V43.8c0-2.4-1.5-2.7-4.7-3v-2.2h10.4L56.5,58l8.3-19.4h10.3v2.1c-3.2,0.2-4.1-0.1-4.1,3.2v18.7
		c0,3.2,0.6,2.7,4.1,3v2.5H61z"/>
	<path class="st8" d="M61,68.1v-2.4c3.3-0.3,4.1-0.4,4.1-2.9V45.2l-9.5,22.9h-1.8l-8.4-21.4l0,13.9c0,3.3,1.7,5,4.3,5.1v2.4H38.5
		v-2.5c3.4-0.3,4.7-2.3,4.7-5.7V43.8c0-2.4-1.5-2.7-4.7-3v-2.2h10.4L56.5,58l8.3-19.4h10.3v2.1c-3.2,0.2-4.1-0.1-4.1,3.2v18.7
		c0,3.2,0.6,2.7,4.1,3v2.5H61z"/>
	<path class="st9" d="M24.4,33.7l0.7-1.4L24.4,33.7z"/>
	<path class="st9" d="M24.4,60.6l0.7-1.4L24.4,60.6z"/>
	<line class="st10" x1="37.5" y1="69" x2="38.5" y2="68.1"/>
	<line class="st10" x1="60.1" y1="69" x2="61" y2="68.1"/>
	<line class="st10" x1="52.9" y1="69" x2="53.8" y2="68.1"/>
	<line class="st10" x1="37.5" y1="41.7" x2="38.4" y2="40.8"/>
	<path class="st0" d="M44,63.9c0.1,0,0.3,0.6,0.7,1.1c0.4,0.6,1,1.1,1,1.1h-3.9c0,0,1.2-0.8,1.5-1.1C43.5,64.8,44,63.9,44,63.9z"/>
	<path class="st0" d="M42,40.3c0,0,1.5,0,2.1,0.3c1,0.5,1.5,1.4,1.6,1.7c0.2,0.4,8.7,21,8.7,21s0.2,1.1,0.3,1.3c0.1,0.2,0,0.7,0,0.8
		c0,0.1-0.3,0.7-0.3,0.7l-9.2-21.9c0,0-0.7-1.6-1-2.1c-0.2-0.3-0.5-0.8-1-1.2C43,40.7,42,40.3,42,40.3z"/>
	<path class="st0" d="M67.2,40.3c0,0-0.4,0.1-0.8,0.3c-0.3,0.1-0.5,0.7-0.5,0.7v0.4l-0.2,22.4c0,0,0,0.8-0.1,1
		c-0.1,0.2-0.1,0.3-0.3,0.4c-0.2,0.1-0.7,0.7-0.8,0.7c-0.1,0,1,0,1,0s0.7-0.1,0.9-0.4c0.5-0.5,0.4-0.8,0.5-1
		C66.9,64.7,67.2,40.3,67.2,40.3z"/>
</g>
</svg>
